<svg xmlns="http://www.w3.org/2000/svg" viewBox="0 0 240 240" role="img" aria-labelledby="title desc">
  <title id="title">O.R.I.O.N. case mark</title>
  <desc id="desc">A geometric investigative symbol with an eye, branches, and signal rings.</desc>
  <defs>
    <linearGradient id="g" x1="30" x2="210" y1="28" y2="212" gradientUnits="userSpaceOnUse">
      <stop stop-color="#c9f7ff"/>
      <stop offset=".52" stop-color="#60e6bd"/>
      <stop offset="1" stop-color="#f6d56f"/>
    </linearGradient>
  </defs>
  <rect width="240" height="240" rx="28" fill="#09110f"/>
  <path d="M120 25 206 75v90l-86 50-86-50V75l86-50Z" fill="none" stroke="url(#g)" stroke-width="5"/>
  <path d="M47 120s28-42 73-42 73 42 73 42-28 42-73 42-73-42-73-42Z" fill="none" stroke="#c9f7ff" stroke-width="5"/>
  <circle cx="120" cy="120" r="22" fill="none" stroke="#60e6bd" stroke-width="6"/>
  <circle cx="120" cy="120" r="7" fill="#f6d56f"/>
  <path d="M120 55v23M120 162v23M64 88l19 12M176 88l-19 12M64 152l19-12M176 152l-19-12" stroke="#f6d56f" stroke-linecap="round" stroke-width="5"/>
  <path d="M34 75h22M184 75h22M34 165h22M184 165h22" stroke="#60e6bd" stroke-linecap="round" stroke-width="4"/>
</svg>
